<svg viewBox="0 0 150 52"><path d="M9.297.47c6.6 0 11.16 4.26 11.16 10.5 0 6.21-4.62 10.5-11.37 10.5H.267v-21h9.03zm-3.69 16.74h3.81c3.27 0 5.61-2.52 5.61-6.21 0-3.72-2.46-6.27-5.85-6.27h-3.57v12.48zM26.77 17.6l-1.53 3.87h-5.49l9.06-21h5.49l8.85 21h-5.7l-1.5-3.87h-9.18zm4.62-11.82l-3.06 7.77h6.06l-3-7.77zM54.237 15.56h-4.2v5.91h-5.34v-21h9.39c5.55 0 8.73 2.64 8.73 7.32 0 3.21-1.35 5.52-3.81 6.75l4.41 6.93h-6.062l-3.118-5.91zm-.15-4.2c2.31 0 3.66-1.17 3.66-3.39 0-2.19-1.35-3.3-3.66-3.3h-4.05v6.688h4.05zM74.16 13.22l-2.79 3.09v5.16h-5.34v-21h5.34v9.09L79.41.47h6.18l-7.8 8.7 8.31 12.3h-6.39l-5.55-8.25z"/><path d="M108.275 10.94c0 6.12-4.86 10.77-11.37 10.77-6.48 0-11.34-4.62-11.34-10.77 0-6.12 4.86-10.65 11.34-10.65 6.51 0 11.37 4.56 11.37 10.65zm-17.25.03c0 3.54 2.73 6.27 5.94 6.27 3.24 0 5.82-2.73 5.82-6.27 0-3.54-2.58-6.21-5.82-6.21s-5.94 2.67-5.94 6.21zM5.607 34.67v4.17h10.02v4.2H5.607v4.23h11.43v4.198H.267V30.47h16.44v4.2h-11.1zM25.68 34.67v4.86h9.42v4.2h-9.42v7.738h-5.34V30.47h15.57v4.2H25.68zM47.98 45.56H43.783v5.91h-5.34v-21h9.39c5.55 0 8.73 2.64 8.73 7.32 0 3.21-1.352 5.52-3.812 6.75l4.41 6.93H51.1l-3.12-5.91zm-.148-4.2c2.31 0 3.66-1.17 3.66-3.39 0-2.19-1.35-3.3-3.66-3.3h-4.05v6.688h4.05zM65.115 34.67v4.17h10.02v4.2h-10.02v4.23h11.43v4.198h-16.77V30.47h16.438v4.2H65.115zM98.208 51.47l-.03-13.65-5.04 11.55h-3.48l-5.04-11.55v13.65h-4.77V30.44h5.85l5.7 12.51 5.7-12.51h5.82v21.028h-4.71zM128.317 40.94c0 6.12-4.86 10.77-11.37 10.77-6.478 0-11.34-4.62-11.34-10.77 0-6.12 4.86-10.65 11.34-10.65 6.51 0 11.37 4.56 11.37 10.65zm-17.25.03c0 3.54 2.73 6.27 5.94 6.27 3.24 0 5.82-2.73 5.82-6.27 0-3.54-2.58-6.21-5.82-6.21-3.238 0-5.94 2.67-5.94 6.21zM135.963 51.47l-8.16-21h5.7l5.37 15.45 5.37-15.45h5.49l-8.25 21h-5.52z"/></svg>