<?xml version="1.0" encoding="utf-8"?>
<!-- Generator: Adobe Illustrator 22.1.0, SVG Export Plug-In . SVG Version: 6.00 Build 0)  -->
<svg version="1.1" id="Layer_1" xmlns="http://www.w3.org/2000/svg" xmlns:xlink="http://www.w3.org/1999/xlink" x="0px" y="0px"
	 viewBox="0 0 665 505" style="enable-background:new 0 0 665 505;" xml:space="preserve">
<style type="text/css">
	.st0{fill:none;stroke:#62499D;stroke-width:7;stroke-linecap:round;stroke-linejoin:round;stroke-miterlimit:10;}
	.st1{fill:#62499D;}
</style>
<polyline class="st0" points="652.6,493.3 638.9,487.4 629.4,479.3 627,463.9 616.5,459.1 609.6,448.7 607.7,420.9 634.3,393.8 
	633.9,381.9 639.8,370 631.5,361.7 628.9,349.6 611.5,325.3 608.9,318 610.6,311.1 607.7,301.3 596.3,287.1 588.2,282.6 583,269 
	576.4,266.9 575.4,256.4 572.8,254 570.9,247.6 563.3,244.5 547.9,224.1 547.9,214.6 540.5,189.7 533.8,175.9 507.9,178.3 
	505.3,169 498.7,161.4 496.1,155.7 484.7,150 474.9,150 427.6,132.4 406.2,127.9 359.7,127.9 347.3,121.5 332.6,121.5 293.4,113.6 
	271.5,117.7 247.8,109.1 228,109.1 218.8,102.7 205,97 195.7,84.9 179.1,73.5 168.6,57.5 159.6,55.6 155.1,48.8 141.5,43.5 
	135.1,49.2 123.2,48.5 96.4,30.7 86.4,29.5 77.2,31.4 65.5,39 54.8,29.5 45.3,26.7 34.6,25.7 27.3,20.5 21.8,21.4 11.6,11.9 "/>
<circle class="st1" cx="652.6" cy="493.3" r="8.5"/>
<circle class="st1" cx="563.3" cy="244.5" r="8.5"/>
<circle class="st1" cx="11.6" cy="11.9" r="8.5"/>
</svg>
