<svg xmlns="http://www.w3.org/2000/svg" viewBox="0 0 24 23.349">
  <path id="gitHub" d="M20.263,9.4a11.985,11.985,0,0,0-3.817,23.339c.587.073.807-.294.807-.587V30.1c-3.3.734-4.037-1.615-4.037-1.615A3.03,3.03,0,0,0,11.9,26.721c-1.1-.734.073-.734.073-.734A2.557,2.557,0,0,1,13.8,27.235a2.541,2.541,0,0,0,3.45,1.028,2.556,2.556,0,0,1,.734-1.615c-2.642-.294-5.431-1.321-5.431-5.945A4.55,4.55,0,0,1,13.8,17.473a4.173,4.173,0,0,1,.147-3.156s1.028-.294,3.3,1.248a10.256,10.256,0,0,1,3.009-.367,13.509,13.509,0,0,1,3.009.367c2.275-1.541,3.3-1.248,3.3-1.248a4.6,4.6,0,0,1,.147,3.156A4.747,4.747,0,0,1,27.97,20.7c0,4.624-2.789,5.578-5.431,5.872a2.8,2.8,0,0,1,.807,2.2v3.3c0,.294.22.661.807.587A11.943,11.943,0,0,0,20.263,9.4Z" transform="translate(-8.3 -9.4)"/>
</svg>
