<svg class="icn" xmlns="http://www.w3.org/2000/svg" viewBox="0 0 490 490"><path d="M462.806 68.11H27.193C12.2 68.11 0 80.306 0 95.3v299.397c0 14.994 12.2 27.193 27.193 27.193h435.613c14.995 0 27.194-12.2 27.194-27.193V95.3c0-14.993-12.2-27.19-27.194-27.19zm-435.613 20h435.613c3.967 0 7.194 3.226 7.194 7.19v30.8H20V95.3c0-3.965 3.226-7.19 7.193-7.19zm435.613 313.78H27.193c-3.966 0-7.193-3.226-7.193-7.192V146.1h450v248.598c0 3.967-3.228 7.193-7.194 7.193z"/><path d="M188.11 210.43c-3.904-3.905-10.236-3.904-14.14 0l-45.153 45.153a10 10 0 0 0 0 14.142l45.152 45.15c1.952 1.954 4.51 2.93 7.07 2.93s5.12-.977 7.07-2.93c3.906-3.904 3.906-10.236 0-14.142l-38.08-38.08 38.08-38.082c3.907-3.902 3.907-10.235 0-14.14zM308.912 210.43c-3.905-3.904-10.235-3.904-14.143 0-3.906 3.905-3.906 10.237 0 14.143l38.08 38.082-38.08 38.08c-3.906 3.905-3.906 10.237 0 14.143a9.968 9.968 0 0 0 7.07 2.93c2.56 0 5.118-.978 7.07-2.93l45.153-45.15a10.003 10.003 0 0 0 0-14.143l-45.15-45.154zM269.59 208.576c-4.93-2.49-10.944-.513-13.435 4.417l-47.283 93.59c-2.49 4.93-.513 10.945 4.417 13.436a9.963 9.963 0 0 0 4.5 1.075c3.653 0 7.173-2.01 8.934-5.492l47.283-93.59c2.49-4.93.513-10.946-4.416-13.437z"/></svg>