<svg xmlns="http://www.w3.org/2000/svg" viewBox="0 0 428.129 428.129"><path d="M166.63 221.52a8.998 8.998 0 0 1-3.942-12.102c2.253-4.432 7.67-6.195 12.102-3.944 23.07 11.73 50.518 11.77 73.424.11 4.428-2.254 9.85-.493 12.104 3.938a9 9 0 0 1-3.938 12.104c-13.973 7.112-29.322 10.668-44.695 10.668a99.454 99.454 0 0 1-45.054-10.775zm95.57 48.763H43.495V43.003H379.72v135.942c0 4.97 4.028 9 9 9s9-4.03 9-9V34.005a9 9 0 0 0-9-9H34.493a9 9 0 0 0-9 9v245.278a9 9 0 0 0 9 9H262.2a9 9 0 0 0 0-18zM28.377 327.06h162.28a9.003 9.003 0 0 0 8.72 6.765h24.462c4.2 0 7.727-2.875 8.72-6.765h29.644a9 9 0 0 0 0-18H28.376C12.73 309.06 0 321.79 0 337.437c0 15.647 12.73 28.377 28.376 28.377H262.2a9 9 0 0 0 0-18H28.377c-5.722 0-10.376-4.655-10.376-10.378 0-5.72 4.654-10.376 10.376-10.376zm287.687-148.697c-4.202-3.008-15.798-6.245-31.325-6.245-17.63 0-24.204 4.08-31.165 8.4-13.097 8.13-27.487 12.192-41.896 12.193-14.48.002-28.98-4.102-42.22-12.308-6.57-4.073-13.364-8.285-30.98-8.285-15.527 0-27.123 3.237-31.326 6.245-4.04 2.894-9.663 1.96-12.555-2.08a9 9 0 0 1 2.08-12.558c7.676-5.493 21.37-8.964 37.22-9.526 2.397-40.785 36.336-73.232 77.713-73.232 41.375 0 75.314 32.447 77.71 73.232 15.85.562 29.545 4.034 37.22 9.526a9 9 0 0 1 2.082 12.557 9 9 0 0 1-12.557 2.083zm-44.735-23.425c-2.003-31.2-28.022-55.972-59.72-55.972-31.696 0-57.717 24.768-59.723 55.965 12.318 1.648 19.7 5.613 27.055 10.173 20.468 12.688 44.82 12.732 65.14.122 7.434-4.612 14.883-8.623 27.248-10.287zm156.8 124.803v57.456c0 36.354-29.575 65.93-65.93 65.93-36.354 0-65.93-29.577-65.93-65.93V279.74c0-36.353 29.575-65.928 65.928-65.928h.003c36.353 0 65.93 29.575 65.93 65.93zm-18 0c0-26.427-21.5-47.928-47.93-47.928h-.002c-26.428 0-47.928 21.5-47.928 47.93v57.454c0 26.428 21.5 47.93 47.928 47.93 26.432 0 47.933-21.502 47.933-47.93V279.74zm-47.932-26.925a9 9 0 0 0-9 9v22.246a9 9 0 0 0 18 0v-22.245a9 9 0 0 0-9-9z"/></svg>