<svg class="icn" xmlns="http://www.w3.org/2000/svg" viewBox="0 0 612 612"><path d="M578.766 51.487v-.895H32.934v.895C15.272 52.7 2.094 66.753 0 83.807v358.727c0 6.898 1.795 12.712 4.79 17.95 6.894 12.136 17.07 18.268 31.14 18.268h197.013v49.695h-37.425c-9.28 0-16.467 7.218-16.467 16.48s7.187 16.48 16.468 16.48h220.666c9.28 0 16.768-7.22 16.768-16.48 0-9.263-7.486-16.48-16.768-16.48H378.76v-49.695h197.01c14.078 0 24.343-6.132 31.14-18.27 3.085-5.492 5.09-11.37 5.09-17.948V83.81c-2.095-17.057-16.167-31.11-33.234-32.323zm0 35.324v355.725c0 2.108-.895 3.002-2.996 3.002H35.93c-2.095 0-2.996-.894-2.996-3.002V83.81h545.83v3z"/></svg>